<svg width="20" height="20" viewBox="0 0 20 20" fill="none" xmlns="http://www.w3.org/2000/svg">
<path fill-rule="evenodd" clip-rule="evenodd" d="M3.52941 1.76471C3.52941 2.73933 2.73933 3.52941 1.76471 3.52941C0.790086 3.52941 0 2.73933 0 1.76471C0 0.790086 0.790086 0 1.76471 0C2.73933 0 3.52941 0.790086 3.52941 1.76471ZM3.52941 10C3.52941 10.9746 2.73933 11.7647 1.76471 11.7647C0.790086 11.7647 0 10.9746 0 10C0 9.02538 0.790086 8.23529 1.76471 8.23529C2.73933 8.23529 3.52941 9.02538 3.52941 10ZM1.76471 20C2.73933 20 3.52941 19.2099 3.52941 18.2353C3.52941 17.2607 2.73933 16.4706 1.76471 16.4706C0.790086 16.4706 0 17.2607 0 18.2353C0 19.2099 0.790086 20 1.76471 20ZM20 1.76471C20 2.73933 19.2099 3.52941 18.2353 3.52941C17.2607 3.52941 16.4706 2.73933 16.4706 1.76471C16.4706 0.790086 17.2607 0 18.2353 0C19.2099 0 20 0.790086 20 1.76471ZM18.2353 11.7647C19.2099 11.7647 20 10.9746 20 10C20 9.02538 19.2099 8.23529 18.2353 8.23529C17.2607 8.23529 16.4706 9.02538 16.4706 10C16.4706 10.9746 17.2607 11.7647 18.2353 11.7647ZM20 18.2353C20 19.2099 19.2099 20 18.2353 20C17.2607 20 16.4706 19.2099 16.4706 18.2353C16.4706 17.2607 17.2607 16.4706 18.2353 16.4706C19.2099 16.4706 20 17.2607 20 18.2353ZM10 3.52941C10.9746 3.52941 11.7647 2.73933 11.7647 1.76471C11.7647 0.790086 10.9746 0 10 0C9.02538 0 8.23529 0.790086 8.23529 1.76471C8.23529 2.73933 9.02538 3.52941 10 3.52941ZM11.7647 10C11.7647 10.9746 10.9746 11.7647 10 11.7647C9.02538 11.7647 8.23529 10.9746 8.23529 10C8.23529 9.02538 9.02538 8.23529 10 8.23529C10.9746 8.23529 11.7647 9.02538 11.7647 10ZM10 20C10.9746 20 11.7647 19.2099 11.7647 18.2353C11.7647 17.2607 10.9746 16.4706 10 16.4706C9.02538 16.4706 8.23529 17.2607 8.23529 18.2353C8.23529 19.2099 9.02538 20 10 20Z" fill="#222222"/>
<mask id="mask0" mask-type="alpha" maskUnits="userSpaceOnUse" x="0" y="0" width="20" height="20">
<path fill-rule="evenodd" clip-rule="evenodd" d="M3.52941 1.76471C3.52941 2.73933 2.73933 3.52941 1.76471 3.52941C0.790086 3.52941 0 2.73933 0 1.76471C0 0.790086 0.790086 0 1.76471 0C2.73933 0 3.52941 0.790086 3.52941 1.76471ZM3.52941 10C3.52941 10.9746 2.73933 11.7647 1.76471 11.7647C0.790086 11.7647 0 10.9746 0 10C0 9.02538 0.790086 8.23529 1.76471 8.23529C2.73933 8.23529 3.52941 9.02538 3.52941 10ZM1.76471 20C2.73933 20 3.52941 19.2099 3.52941 18.2353C3.52941 17.2607 2.73933 16.4706 1.76471 16.4706C0.790086 16.4706 0 17.2607 0 18.2353C0 19.2099 0.790086 20 1.76471 20ZM20 1.76471C20 2.73933 19.2099 3.52941 18.2353 3.52941C17.2607 3.52941 16.4706 2.73933 16.4706 1.76471C16.4706 0.790086 17.2607 0 18.2353 0C19.2099 0 20 0.790086 20 1.76471ZM18.2353 11.7647C19.2099 11.7647 20 10.9746 20 10C20 9.02538 19.2099 8.23529 18.2353 8.23529C17.2607 8.23529 16.4706 9.02538 16.4706 10C16.4706 10.9746 17.2607 11.7647 18.2353 11.7647ZM20 18.2353C20 19.2099 19.2099 20 18.2353 20C17.2607 20 16.4706 19.2099 16.4706 18.2353C16.4706 17.2607 17.2607 16.4706 18.2353 16.4706C19.2099 16.4706 20 17.2607 20 18.2353ZM10 3.52941C10.9746 3.52941 11.7647 2.73933 11.7647 1.76471C11.7647 0.790086 10.9746 0 10 0C9.02538 0 8.23529 0.790086 8.23529 1.76471C8.23529 2.73933 9.02538 3.52941 10 3.52941ZM11.7647 10C11.7647 10.9746 10.9746 11.7647 10 11.7647C9.02538 11.7647 8.23529 10.9746 8.23529 10C8.23529 9.02538 9.02538 8.23529 10 8.23529C10.9746 8.23529 11.7647 9.02538 11.7647 10ZM10 20C10.9746 20 11.7647 19.2099 11.7647 18.2353C11.7647 17.2607 10.9746 16.4706 10 16.4706C9.02538 16.4706 8.23529 17.2607 8.23529 18.2353C8.23529 19.2099 9.02538 20 10 20Z" fill="white"/>
</mask>
<g mask="url(#mask0)">
</g>
</svg>
